# xmcd
#
# Track frame offsets:
#	150
#	14950
#	39385
#	57650
#	81035
#	96487
#	109750
#	122475
#	144040
#	173102
#	191797
#	205405
#	226485
#	237082
#	254387
#
# Disc length: 3631 seconds
#
# Revision: 1
# Processed by: cddbd v1.5.1PL0 Copyright (c) Steve Scherf et al.
# Submitted via: CDex 1.50Beta5
#
DISCID=d30e2d0f
DTITLE=エルトン・ジョン - YOUR SONGII Disc 1
DYEAR=2001
DGENRE=Rock
TTITLE0=エルトン・ジョン/グッバイ・イエロー・ブリック・ロード
TTITLE1=ダイアナ・ロス/アイム・カミング・アウト
TTITLE2=ライオネル・リッチー/セイ・ユー・セイ・ミー
TTITLE3=スティーヴ・ウィンウッド/ユー・シー・ア・チャンス
TTITLE4=キャプテン&テニール/愛ある限り
TTITLE5=テンプテーションズ/マイ・ガール
TTITLE6=ビージーズ/若葉のころ
TTITLE7=ヴィレッジ・ピープル/Y.M.C.A.
TTITLE8=クインシー・ジョーンズ/愛のコリーダ
TTITLE9=バリー・ホワイト/愛のテーマ
TTITLE10=グロリア・ゲイナー/さよならは言わないで
TTITLE11=デオン・エスタス/ヘヴン・ヘルプ・ミー
TTITLE12=ランナウェイズ/チェリー・ボム
TTITLE13=グレン・メデイロス/変わらぬ想い
TTITLE14=クール&ザ・ギャング/ジョアンナ
EXTD=
EXTT0=
EXTT1=
EXTT2=
EXTT3=
EXTT4=
EXTT5=
EXTT6=
EXTT7=
EXTT8=
EXTT9=
EXTT10=
EXTT11=
EXTT12=
EXTT13=
EXTT14=
PLAYORDER=
